<svg width="6" height="10" viewBox="0 0 6 10" fill="none" xmlns="http://www.w3.org/2000/svg">
<path d="M0.652344 9.84375C0.810547 9.84375 0.939453 9.78516 1.04492 9.68555L5.41016 5.41406C5.5332 5.29688 5.59766 5.15625 5.59766 4.99805C5.59766 4.83984 5.5332 4.6875 5.41602 4.57617L1.05078 0.310547C0.945312 0.205078 0.810547 0.146484 0.652344 0.146484C0.341797 0.146484 0.0957031 0.392578 0.0957031 0.703125C0.0957031 0.855469 0.160156 0.996094 0.259766 1.10156L4.24414 4.99805L0.259766 8.88867C0.160156 8.99414 0.0957031 9.13477 0.0957031 9.28711C0.0957031 9.60352 0.341797 9.84375 0.652344 9.84375Z" fill="black" fill-opacity="0.5"/>
</svg>
