<svg width="19" height="16" viewBox="0 0 19 16" fill="none" xmlns="http://www.w3.org/2000/svg">
<path fill-rule="evenodd" clip-rule="evenodd" d="M8.67351 0.33051C8.77828 0.435013 8.8614 0.559158 8.91811 0.695835C8.97483 0.832511 9.00402 0.979034 9.00402 1.12701C9.00402 1.27499 8.97483 1.42151 8.91811 1.55819C8.8614 1.69486 8.77828 1.81901 8.67351 1.92351L2.71776 7.87701L8.67351 13.8305C8.77811 13.9351 8.86108 14.0593 8.91769 14.1959C8.9743 14.3326 9.00343 14.4791 9.00343 14.627C9.00343 14.7749 8.9743 14.9214 8.91769 15.0581C8.86108 15.1947 8.77811 15.3189 8.67351 15.4235C8.56891 15.5281 8.44474 15.6111 8.30807 15.6677C8.17141 15.7243 8.02493 15.7534 7.87701 15.7534C7.72909 15.7534 7.58261 15.7243 7.44595 15.6677C7.30928 15.6111 7.18511 15.5281 7.08051 15.4235L0.330511 8.67351C0.225744 8.56901 0.142622 8.44486 0.0859074 8.30819C0.0291929 8.17151 0 8.02499 0 7.87701C0 7.72903 0.0291929 7.58251 0.0859074 7.44584C0.142622 7.30916 0.225744 7.18501 0.330511 7.08051L7.08051 0.33051C7.18501 0.225743 7.30916 0.142621 7.44583 0.0859069C7.58251 0.0291924 7.72903 0 7.87701 0C8.02499 0 8.17151 0.0291924 8.30819 0.0859069C8.44486 0.142621 8.56901 0.225743 8.67351 0.33051Z" fill="black"/>
<path fill-rule="evenodd" clip-rule="evenodd" d="M1.12695 7.87695C1.12695 7.57858 1.24548 7.29244 1.45646 7.08146C1.66744 6.87048 1.95358 6.75195 2.25195 6.75195H16.877C17.1753 6.75195 17.4615 6.87048 17.6724 7.08146C17.8834 7.29244 18.002 7.57858 18.002 7.87695C18.002 8.17532 17.8834 8.46147 17.6724 8.67245C17.4615 8.88343 17.1753 9.00195 16.877 9.00195H2.25195C1.95358 9.00195 1.66744 8.88343 1.45646 8.67245C1.24548 8.46147 1.12695 8.17532 1.12695 7.87695Z" fill="black"/>
</svg>
