<svg width="11" height="6" viewBox="0 0 11 6" fill="none" xmlns="http://www.w3.org/2000/svg">
<path d="M5.26367 5.98633C5.42188 5.98633 5.56836 5.91602 5.67969 5.79883L9.94531 1.43359C10.0508 1.32812 10.1094 1.19336 10.1094 1.04102C10.1094 0.724609 9.86914 0.484375 9.55273 0.484375C9.40625 0.484375 9.25977 0.542969 9.1543 0.648438L5.26367 4.63281L1.36719 0.648438C1.26172 0.542969 1.12695 0.484375 0.96875 0.484375C0.658203 0.484375 0.412109 0.724609 0.412109 1.04102C0.412109 1.19336 0.470703 1.32812 0.576172 1.43359L4.8418 5.79883C4.96484 5.92188 5.09961 5.98633 5.26367 5.98633Z" fill="#000"/>
</svg>
